<svg xmlns="http://www.w3.org/2000/svg" width="290" height="430" viewBox="0 0 290 430"><rect width="100%" height="100%" fill="#DDDDDD"/><path fill="#999999" d="M68 224.61h7.23q.78 0 1.24.44.46.44.46 1.16v2.89H57.58v-1.6q0-.49.21-1.02.2-.54.65-.97l8.56-8.58q1.08-1.09 1.92-2.08.85-1 1.42-1.97.56-.98.87-1.98.3-1.01.3-2.12 0-1.01-.29-1.78-.3-.77-.83-1.3-.54-.53-1.29-.79t-1.69-.26q-.86 0-1.59.24-.73.24-1.29.68-.57.44-.96 1.03-.39.58-.58 1.28-.33.9-.86 1.19-.53.3-1.52.14l-2.54-.45q.29-2.03 1.13-3.56.84-1.53 2.1-2.55 1.26-1.03 2.89-1.54 1.62-.52 3.5-.52 1.95 0 3.56.58 1.62.57 2.77 1.62 1.15 1.06 1.8 2.54.64 1.48.64 3.29 0 1.57-.46 2.89-.46 1.33-1.23 2.54-.77 1.2-1.8 2.34-1.03 1.13-2.16 2.3l-6.36 6.49q.92-.27 1.82-.42.91-.15 1.73-.15Zm17.16-15.24q0 2.36 1.22 3.59 1.22 1.24 3.46 1.24 1.17 0 2.08-.37.92-.37 1.54-1.01.63-.65.95-1.52.32-.88.32-1.9 0-1.15-.35-2.05-.35-.91-.99-1.53-.65-.63-1.53-.96-.89-.33-1.94-.33-1.1 0-1.97.36-.88.36-1.5 1.01-.63.64-.96 1.53-.33.88-.33 1.94ZM82.8 229.1l8.75-10.94q.34-.41.63-.8.29-.39.56-.78-.97.63-2.14.95-1.17.32-2.46.32-1.46 0-2.87-.51-1.4-.51-2.49-1.53-1.09-1.02-1.77-2.53-.67-1.52-.67-3.54 0-1.89.7-3.55.71-1.66 1.97-2.91 1.27-1.25 3.04-1.97 1.78-.72 3.92-.72 2.17 0 3.89.68 1.73.69 2.95 1.91 1.22 1.23 1.87 2.95.65 1.72.65 3.76 0 1.31-.22 2.48t-.63 2.25q-.41 1.08-1 2.12-.58 1.03-1.3 2.04l-6.46 9.21q-.33.47-.99.79-.67.32-1.5.32H82.8Zm40.19-14.1q0 3.69-.79 6.41t-2.19 4.49q-1.39 1.78-3.29 2.64-1.9.87-4.11.87-2.2 0-4.08-.87-1.88-.86-3.27-2.64-1.38-1.77-2.16-4.49-.78-2.72-.78-6.41 0-3.7.78-6.41t2.16-4.49q1.39-1.77 3.27-2.64 1.88-.87 4.08-.87 2.21 0 4.11.87 1.9.87 3.29 2.64 1.4 1.78 2.19 4.49t.79 6.41Zm-4.97 0q0-3.06-.45-5.07-.45-2.01-1.2-3.2-.75-1.19-1.73-1.66-.97-.48-2.03-.48-1.03 0-1.99.48-.97.47-1.71 1.66t-1.18 3.2q-.44 2.01-.44 5.07 0 3.06.44 5.07.44 2.01 1.18 3.2.74 1.19 1.71 1.67.96.47 1.99.47 1.06 0 2.03-.47.98-.48 1.73-1.67t1.2-3.2q.45-2.01.45-5.07Zm35.93 7.65-2.55 2.51-6.61-6.61-6.67 6.65-2.55-2.52 6.66-6.68-6.35-6.36 2.53-2.54 6.36 6.36 6.32-6.32 2.57 2.54-6.34 6.34 6.63 6.63Zm16.89-4.18h8.58v-9.22q0-1.31.18-2.89l-8.76 12.11Zm12.77 0h3.55v2.79q0 .39-.25.67-.25.29-.72.29h-2.58v6.88h-4.19v-6.88h-11.89q-.49 0-.86-.31-.37-.3-.47-.75l-.51-2.43 13.36-17.85h4.56v17.59Zm9.19-9.26-2.54-.45q.3-2.03 1.13-3.56.84-1.53 2.1-2.55 1.26-1.03 2.89-1.54 1.62-.52 3.5-.52 1.95 0 3.52.56 1.57.55 2.68 1.54 1.11.98 1.7 2.31.6 1.32.6 2.86 0 1.35-.3 2.37-.31 1.03-.87 1.79-.57.76-1.41 1.29-.83.52-1.89.87 2.54.8 3.79 2.44 1.24 1.64 1.24 4.11 0 2.11-.78 3.73t-2.1 2.72q-1.33 1.1-3.07 1.67-1.75.56-3.7.56-2.12 0-3.7-.49-1.58-.48-2.75-1.44-1.17-.95-1.99-2.34-.82-1.38-1.41-3.2l2.13-.87q.84-.35 1.57-.19.73.17 1.06.79.35.68.77 1.35.42.66 1.01 1.18.58.51 1.37.83.79.33 1.88.33 1.23 0 2.15-.4.91-.4 1.53-1.05.61-.64.92-1.43.3-.79.3-1.59 0-1.01-.22-1.84-.21-.83-.89-1.42-.69-.58-1.96-.91-1.28-.33-3.43-.33v-3.44q1.78-.02 2.95-.33 1.17-.31 1.86-.87.69-.55.97-1.33.27-.78.27-1.72 0-1.99-1.11-3.02t-2.97-1.03q-.85 0-1.58.24-.72.24-1.29.68-.58.44-.97 1.03-.39.58-.58 1.28-.33.9-.87 1.19-.54.3-1.51.14Zm39.62 5.79q0 3.69-.79 6.41t-2.18 4.49q-1.4 1.78-3.3 2.64-1.9.87-4.1.87-2.21 0-4.09-.87-1.88-.86-3.26-2.64-1.39-1.77-2.17-4.49t-.78-6.41q0-3.7.78-6.41t2.17-4.49q1.38-1.77 3.26-2.64 1.88-.87 4.09-.87 2.2 0 4.1.87 1.9.87 3.3 2.64 1.39 1.78 2.18 4.49.79 2.71.79 6.41Zm-4.97 0q0-3.06-.45-5.07-.45-2.01-1.2-3.2-.75-1.19-1.72-1.66-.98-.48-2.03-.48-1.04 0-2 .48-.97.47-1.71 1.66t-1.18 3.2q-.44 2.01-.44 5.07 0 3.06.44 5.07.44 2.01 1.18 3.2.74 1.19 1.71 1.67.96.47 2 .47 1.05 0 2.03-.47.97-.48 1.72-1.67t1.2-3.2q.45-2.01.45-5.07Z"/></svg>