<svg xmlns="http://www.w3.org/2000/svg" width="415" height="315" viewBox="0 0 415 315"><rect width="100%" height="100%" fill="#DDDDDD"/><path fill="#999999" d="M91.39 162.39h12.09v-13.01q0-1.84.25-4.06l-12.34 17.07Zm18.01 0h5v3.94q0 .54-.36.94-.35.4-1.01.4h-3.63v9.71h-5.92v-9.71H86.71q-.69 0-1.21-.42-.52-.43-.66-1.06l-.72-3.44 18.84-25.16h6.44v24.8Zm27.72 9.9h7.15v5.09h-22v-5.09h8.05v-23.18q0-1.37.09-2.83l-5.72 4.78q-.5.39-.98.48-.48.1-.91.02-.42-.09-.75-.29-.33-.21-.5-.46l-2.14-2.94 12.12-10.31h5.59v34.73Zm23.15-28.51-1.4 8.27q1.32-.27 2.53-.4 1.21-.12 2.34-.12 3.13 0 5.52.94 2.4.93 4.02 2.58 1.62 1.65 2.45 3.86.82 2.22.82 4.77 0 3.17-1.11 5.78-1.12 2.61-3.1 4.47-1.98 1.86-4.68 2.87-2.71 1.02-5.9 1.02-1.87 0-3.55-.38-1.68-.39-3.15-1.04-1.47-.64-2.72-1.48-1.25-.84-2.24-1.78l2.09-2.88q.66-.94 1.73-.94.69 0 1.4.44.72.44 1.64.96.92.53 2.17.97 1.25.44 3.01.44 1.87 0 3.3-.61 1.43-.6 2.38-1.69.95-1.08 1.43-2.58t.48-3.26q0-3.25-1.88-5.08-1.89-1.83-5.57-1.83-2.83 0-5.8 1.05l-4.24-1.21 3.3-19.31h19.64v2.89q0 1.46-.91 2.37-.91.91-3.08.91h-10.92Zm61.63 24.5-3.6 3.55-9.33-9.33-9.4 9.38-3.6-3.55 9.4-9.43-8.96-8.97 3.57-3.57 8.97 8.97 8.91-8.91 3.63 3.57-8.94 8.94 9.35 9.35Zm22.88-18.95-3.58-.63q.42-2.86 1.6-5.02 1.18-2.16 2.96-3.6 1.77-1.45 4.07-2.18 2.29-.72 4.93-.72 2.75 0 4.97.78 2.21.78 3.78 2.17 1.56 1.39 2.4 3.26.84 1.87.84 4.04 0 1.9-.42 3.34-.43 1.45-1.23 2.52t-1.98 1.82q-1.18.74-2.67 1.23 3.58 1.13 5.34 3.44 1.76 2.31 1.76 5.8 0 2.97-1.1 5.26-1.1 2.28-2.97 3.83-1.87 1.55-4.33 2.35t-5.21.8q-3 0-5.23-.69-2.23-.69-3.88-2.03-1.65-1.35-2.8-3.3-1.16-1.96-1.98-4.51l3-1.24q1.18-.49 2.21-.26 1.03.23 1.5 1.11.49.96 1.09 1.9.59.93 1.41 1.66.83.73 1.94 1.19 1.11.45 2.65.45 1.74 0 3.03-.56 1.29-.57 2.16-1.48.86-.9 1.29-2.02.43-1.11.43-2.24 0-1.43-.31-2.6-.3-1.17-1.26-1.99-.96-.83-2.76-1.29-1.81-.47-4.83-.47v-4.84q2.5-.03 4.15-.47 1.65-.44 2.63-1.22.97-.79 1.36-1.88.38-1.11.38-2.43 0-2.8-1.56-4.26-1.57-1.45-4.18-1.45-1.21 0-2.23.34t-1.83.96q-.81.62-1.36 1.45-.55.82-.83 1.81-.46 1.26-1.22 1.68-.76.41-2.13.19Zm46.67 22.96h7.15v5.09h-22v-5.09h8.05v-23.18q0-1.37.09-2.83l-5.72 4.78q-.5.39-.98.48-.48.1-.91.02-.42-.09-.75-.29-.33-.21-.5-.46l-2.14-2.94 12.12-10.31h5.59v34.73Zm23.15-28.51-1.4 8.27q1.32-.27 2.53-.4 1.21-.12 2.34-.12 3.13 0 5.52.94 2.4.93 4.02 2.58 1.62 1.65 2.45 3.86.82 2.22.82 4.77 0 3.17-1.11 5.78-1.12 2.61-3.1 4.47-1.98 1.86-4.68 2.87-2.71 1.02-5.9 1.02-1.87 0-3.55-.38-1.68-.39-3.15-1.04-1.47-.64-2.72-1.48-1.25-.84-2.24-1.78l2.09-2.88q.66-.94 1.73-.94.69 0 1.4.44.72.44 1.64.96.92.53 2.17.97 1.25.44 3.01.44 1.87 0 3.3-.61 1.43-.6 2.38-1.69.95-1.08 1.43-2.58t.48-3.26q0-3.25-1.88-5.08-1.89-1.83-5.57-1.83-2.83 0-5.8 1.05l-4.24-1.21 3.3-19.31h19.64v2.89q0 1.46-.91 2.37-.91.91-3.08.91H314.6Z"/></svg>